# xmcd
#
# Track frame offsets:
#	150
#	15652
#	32245
#	43582
#	56267
#	70217
#	85900
#	104392
#	120045
#	137310
#	157532
#	173900
#	190865
#	206180
#	221327
#	239477
#
# Disc length: 3294 seconds
#
# Revision: 1
# Processed by: cddbd v1.5.2PL0 Copyright (c) Steve Scherf et al.
# Submitted via: audiograbber 1.83.01
#
DISCID=ca0cdc10
DTITLE=тсеятос лпалпгс [1999] - то леяайкгдийо поуки
DYEAR=1999
DGENRE=
TTITLE0=питсияийа - цоумаяг
TTITLE1=асе том пакиойосло ма кееи - соуциоук
TTITLE2=мостило тяеко лийяо лоу - балбайаяг
TTITLE3=та фгкиаяийа соу латиа - балбайаяг
TTITLE4=пеияаиытисса - ц папаиыаммоу
TTITLE5=есоуяыса йи апоье - латсас пеяистеягс
TTITLE6=апоье сиыпгкои - акациаммг
TTITLE7=л' ема паяапомо - лоутсгс цйатсос
TTITLE8=апо бухо с' акко бухо - наявайос цйоужас
TTITLE9=лаяойо - п. мийокаоу
TTITLE10=сто ботамийо - яоуйоума
TTITLE11=отам се бкепы йи еявесаи - слуямеийо
TTITLE12=аспяо тяиамтажукко -  паяадосиайо авазас
TTITLE13=ыв, лийяо лекавяимо - тоумта
TTITLE14=паяапомиаяа лоу - тоумта
TTITLE15=то леяайкгдийо поуки - жоустакиеяг
EXTD=
EXTT0=
EXTT1=
EXTT2=
EXTT3=
EXTT4=
EXTT5=
EXTT6=
EXTT7=
EXTT8=
EXTT9=
EXTT10=
EXTT11=
EXTT12=
EXTT13=
EXTT14=
EXTT15=
PLAYORDER=
